<svg xmlns="http://www.w3.org/2000/svg" width="64" height="64" viewBox="0 0 64 64"><circle cx="29.27" cy="32.43" r="0.36" fill="#000" fill-opacity="0.056"/><circle cx="33.23" cy="32.27" r="0.36" fill="#000" fill-opacity="0.056"/><circle cx="30.62" cy="29.32" r="0.36" fill="#000" fill-opacity="0.056"/><circle cx="29.07" cy="28.47" r="0.36" fill="#000" fill-opacity="0.057"/><circle cx="29.54" cy="36.38" r="0.36" fill="#000" fill-opacity="0.057"/><circle cx="33.31" cy="27.34" r="0.36" fill="#000" fill-opacity="0.057"/><circle cx="35.81" cy="35.21" r="0.36" fill="#000" fill-opacity="0.057"/><circle cx="36.94" cy="28.85" r="0.36" fill="#000" fill-opacity="0.057"/><circle cx="29.64" cy="25.95" r="0.36" fill="#000" fill-opacity="0.057"/><circle cx="28.04" cy="26.43" r="0.36" fill="#000" fill-opacity="0.058"/><circle cx="32.11" cy="31.00" r="0.36" fill="#000" fill-opacity="0.056"/><circle cx="33.49" cy="27.91" r="0.36" fill="#000" fill-opacity="0.057"/><circle cx="28.94" cy="24.59" r="0.36" fill="#000" fill-opacity="0.058"/><circle cx="35.70" cy="32.21" r="0.36" fill="#000" fill-opacity="0.056"/><circle cx="29.87" cy="40.23" r="0.36" fill="#000" fill-opacity="0.058"/><circle cx="29.73" cy="27.17" r="0.36" fill="#000" fill-opacity="0.057"/><circle cx="28.51" cy="29.83" r="0.36" fill="#000" fill-opacity="0.057"/><circle cx="27.15" cy="25.44" r="0.49" fill="#000" fill-opacity="0.706"/><circle cx="37.21" cy="28.76" r="0.36" fill="#000" fill-opacity="0.057"/><circle cx="40.45" cy="30.43" r="0.36" fill="#000" fill-opacity="0.059"/><circle cx="38.30" cy="38.08" r="0.36" fill="#000" fill-opacity="0.059"/><circle cx="26.03" cy="24.71" r="0.36" fill="#000" fill-opacity="0.059"/><circle cx="26.02" cy="26.54" r="0.36" fill="#000" fill-opacity="0.058"/><circle cx="39.20" cy="33.40" r="0.36" fill="#000" fill-opacity="0.058"/><circle cx="25.75" cy="37.10" r="0.36" fill="#000" fill-opacity="0.058"/><circle cx="25.01" cy="28.70" r="0.36" fill="#000" fill-opacity="0.058"/><circle cx="25.56" cy="23.68" r="0.36" fill="#000" fill-opacity="0.060"/><circle cx="40.81" cy="29.69" r="0.36" fill="#000" fill-opacity="0.059"/><circle cx="23.45" cy="34.07" r="0.36" fill="#000" fill-opacity="0.059"/><circle cx="28.21" cy="40.01" r="0.36" fill="#000" fill-opacity="0.059"/><circle cx="28.88" cy="20.90" r="0.36" fill="#000" fill-opacity="0.061"/><circle cx="30.26" cy="43.87" r="0.36" fill="#000" fill-opacity="0.061"/><circle cx="43.76" cy="32.06" r="0.36" fill="#000" fill-opacity="0.061"/><circle cx="40.63" cy="40.80" r="0.36" fill="#000" fill-opacity="0.061"/><circle cx="21.36" cy="30.98" r="0.36" fill="#000" fill-opacity="0.060"/><circle cx="21.32" cy="30.92" r="0.51" fill="#000" fill-opacity="0.711"/><circle cx="30.76" cy="42.72" r="0.36" fill="#000" fill-opacity="0.060"/><circle cx="22.47" cy="26.04" r="0.36" fill="#000" fill-opacity="0.061"/><circle cx="22.57" cy="23.65" r="0.36" fill="#000" fill-opacity="0.062"/><circle cx="42.52" cy="34.57" r="0.36" fill="#000" fill-opacity="0.060"/><circle cx="21.67" cy="27.66" r="0.36" fill="#000" fill-opacity="0.061"/><circle cx="44.19" cy="30.67" r="0.36" fill="#000" fill-opacity="0.062"/><circle cx="23.24" cy="21.14" r="0.36" fill="#000" fill-opacity="0.063"/><circle cx="28.91" cy="17.48" r="0.36" fill="#000" fill-opacity="0.064"/><circle cx="19.53" cy="27.92" r="0.36" fill="#000" fill-opacity="0.063"/><circle cx="33.34" cy="45.16" r="0.36" fill="#000" fill-opacity="0.063"/><circle cx="46.77" cy="33.68" r="0.36" fill="#000" fill-opacity="0.064"/><circle cx="30.68" cy="47.22" r="0.36" fill="#000" fill-opacity="0.064"/><circle cx="19.14" cy="25.70" r="0.36" fill="#000" fill-opacity="0.064"/><circle cx="42.75" cy="43.30" r="0.36" fill="#000" fill-opacity="0.065"/><circle cx="45.58" cy="35.67" r="0.36" fill="#000" fill-opacity="0.064"/><circle cx="19.34" cy="22.79" r="0.36" fill="#000" fill-opacity="0.065"/><circle cx="18.59" cy="26.72" r="0.36" fill="#000" fill-opacity="0.064"/><circle cx="47.26" cy="31.69" r="0.36" fill="#000" fill-opacity="0.065"/><circle cx="20.93" cy="41.22" r="0.36" fill="#000" fill-opacity="0.065"/><circle cx="20.74" cy="41.02" r="0.54" fill="#000" fill-opacity="0.723"/><circle cx="23.60" cy="43.79" r="0.36" fill="#000" fill-opacity="0.065"/><circle cx="18.00" cy="24.96" r="0.36" fill="#000" fill-opacity="0.066"/><circle cx="35.89" cy="47.29" r="0.36" fill="#000" fill-opacity="0.066"/><circle cx="21.14" cy="18.86" r="0.36" fill="#000" fill-opacity="0.067"/><circle cx="38.65" cy="31.76" r="0.36" fill="#000" fill-opacity="0.059"/><circle cx="18.54" cy="38.43" r="0.36" fill="#000" fill-opacity="0.065"/><circle cx="38.58" cy="34.81" r="0.36" fill="#000" fill-opacity="0.059"/><circle cx="26.47" cy="46.07" r="0.36" fill="#000" fill-opacity="0.066"/><circle cx="38.55" cy="28.71" r="0.36" fill="#000" fill-opacity="0.059"/><circle cx="29.00" cy="14.42" r="0.36" fill="#000" fill-opacity="0.068"/><circle cx="49.42" cy="35.25" r="0.36" fill="#000" fill-opacity="0.068"/><circle cx="31.14" cy="50.19" r="0.36" fill="#000" fill-opacity="0.069"/><circle cx="38.35" cy="37.80" r="0.36" fill="#000" fill-opacity="0.060"/><circle cx="16.14" cy="25.50" r="0.36" fill="#000" fill-opacity="0.068"/><circle cx="16.48" cy="35.47" r="0.36" fill="#000" fill-opacity="0.067"/><circle cx="38.29" cy="25.74" r="0.36" fill="#000" fill-opacity="0.061"/><circle cx="48.31" cy="36.67" r="0.36" fill="#000" fill-opacity="0.068"/><circle cx="29.47" cy="48.00" r="0.36" fill="#000" fill-opacity="0.067"/><circle cx="16.43" cy="22.16" r="0.36" fill="#000" fill-opacity="0.069"/><circle cx="44.60" cy="45.52" r="0.36" fill="#000" fill-opacity="0.070"/><circle cx="15.84" cy="25.92" r="0.36" fill="#000" fill-opacity="0.069"/><circle cx="38.08" cy="24.19" r="0.52" fill="#000" fill-opacity="0.715"/><circle cx="49.97" cy="32.71" r="0.36" fill="#000" fill-opacity="0.070"/><circle cx="37.97" cy="40.64" r="0.36" fill="#000" fill-opacity="0.063"/><circle cx="16.82" cy="22.18" r="0.36" fill="#000" fill-opacity="0.070"/><circle cx="31.36" cy="51.45" r="0.59" fill="#000" fill-opacity="0.740"/><circle cx="37.88" cy="22.93" r="0.36" fill="#000" fill-opacity="0.063"/><circle cx="38.34" cy="49.03" r="0.36" fill="#000" fill-opacity="0.070"/><circle cx="14.80" cy="32.43" r="0.36" fill="#000" fill-opacity="0.069"/><circle cx="32.54" cy="49.54" r="0.36" fill="#000" fill-opacity="0.070"/><circle cx="19.30" cy="16.91" r="0.36" fill="#000" fill-opacity="0.072"/><circle cx="29.17" cy="11.79" r="0.36" fill="#000" fill-opacity="0.073"/><circle cx="37.43" cy="43.27" r="0.36" fill="#000" fill-opacity="0.066"/><circle cx="51.64" cy="36.75" r="0.36" fill="#000" fill-opacity="0.073"/><circle cx="37.32" cy="20.34" r="0.36" fill="#000" fill-opacity="0.066"/><circle cx="13.52" cy="25.47" r="0.36" fill="#000" fill-opacity="0.073"/><circle cx="31.62" cy="52.72" r="0.36" fill="#000" fill-opacity="0.074"/><circle cx="13.55" cy="29.38" r="0.36" fill="#000" fill-opacity="0.072"/><circle cx="50.64" cy="37.57" r="0.36" fill="#000" fill-opacity="0.073"/><circle cx="51.85" cy="33.54" r="0.61" fill="#000" fill-opacity="0.746"/><circle cx="13.89" cy="21.77" r="0.36" fill="#000" fill-opacity="0.074"/><circle cx="13.49" cy="25.26" r="0.36" fill="#000" fill-opacity="0.074"/><circle cx="35.60" cy="50.65" r="0.36" fill="#000" fill-opacity="0.073"/><circle cx="46.15" cy="47.41" r="0.36" fill="#000" fill-opacity="0.075"/><circle cx="52.23" cy="33.72" r="0.36" fill="#000" fill-opacity="0.075"/><circle cx="16.02" cy="19.63" r="0.36" fill="#000" fill-opacity="0.075"/><circle cx="40.64" cy="50.36" r="0.36" fill="#000" fill-opacity="0.075"/><circle cx="36.77" cy="45.62" r="0.36" fill="#000" fill-opacity="0.070"/><circle cx="13.15" cy="21.70" r="0.63" fill="#000" fill-opacity="0.753"/><circle cx="36.63" cy="18.03" r="0.36" fill="#000" fill-opacity="0.070"/><circle cx="12.75" cy="26.40" r="0.36" fill="#000" fill-opacity="0.076"/><circle cx="12.46" cy="24.99" r="0.63" fill="#000" fill-opacity="0.754"/><circle cx="17.77" cy="15.33" r="0.36" fill="#000" fill-opacity="0.077"/><circle cx="34.21" cy="32.57" r="0.36" fill="#000" fill-opacity="0.057"/><circle cx="34.49" cy="30.64" r="0.36" fill="#000" fill-opacity="0.057"/><circle cx="34.50" cy="30.59" r="0.48" fill="#000" fill-opacity="0.703"/><circle cx="33.87" cy="34.49" r="0.36" fill="#000" fill-opacity="0.057"/><circle cx="38.57" cy="51.29" r="0.36" fill="#000" fill-opacity="0.077"/><circle cx="52.21" cy="38.20" r="0.64" fill="#000" fill-opacity="0.757"/><circle cx="34.71" cy="28.75" r="0.36" fill="#000" fill-opacity="0.059"/><circle cx="29.42" cy="9.65" r="0.36" fill="#000" fill-opacity="0.079"/><circle cx="53.38" cy="38.14" r="0.36" fill="#000" fill-opacity="0.079"/><circle cx="53.38" cy="38.14" r="0.64" fill="#000" fill-opacity="0.759"/><circle cx="33.48" cy="36.34" r="0.36" fill="#000" fill-opacity="0.059"/><circle cx="11.36" cy="25.60" r="0.36" fill="#000" fill-opacity="0.078"/><circle cx="32.11" cy="54.74" r="0.36" fill="#000" fill-opacity="0.079"/><circle cx="52.51" cy="38.33" r="0.36" fill="#000" fill-opacity="0.079"/><circle cx="34.87" cy="26.93" r="0.36" fill="#000" fill-opacity="0.061"/><circle cx="35.99" cy="47.64" r="0.36" fill="#000" fill-opacity="0.074"/><circle cx="33.06" cy="38.09" r="0.36" fill="#000" fill-opacity="0.062"/><circle cx="11.59" cy="24.77" r="0.36" fill="#000" fill-opacity="0.079"/><circle cx="11.81" cy="21.64" r="0.36" fill="#000" fill-opacity="0.080"/><circle cx="35.83" cy="16.08" r="0.36" fill="#000" fill-opacity="0.075"/><circle cx="15.61" cy="17.39" r="0.36" fill="#000" fill-opacity="0.080"/><circle cx="47.34" cy="48.92" r="0.36" fill="#000" fill-opacity="0.080"/><circle cx="53.99" cy="34.69" r="0.36" fill="#000" fill-opacity="0.080"/><circle cx="42.72" cy="51.24" r="0.36" fill="#000" fill-opacity="0.080"/><circle cx="12.42" cy="23.55" r="0.36" fill="#000" fill-opacity="0.080"/><circle cx="34.96" cy="25.24" r="0.36" fill="#000" fill-opacity="0.064"/><circle cx="32.61" cy="39.68" r="0.36" fill="#000" fill-opacity="0.065"/><circle cx="10.44" cy="25.73" r="0.67" fill="#000" fill-opacity="0.766"/><circle cx="39.98" cy="26.75" r="0.36" fill="#000" fill-opacity="0.068"/><circle cx="40.96" cy="28.64" r="0.36" fill="#000" fill-opacity="0.068"/><circle cx="41.37" cy="51.46" r="0.36" fill="#000" fill-opacity="0.081"/><circle cx="38.81" cy="24.99" r="0.36" fill="#000" fill-opacity="0.069"/><circle cx="41.71" cy="30.62" r="0.36" fill="#000" fill-opacity="0.069"/><circle cx="37.47" cy="23.40" r="0.36" fill="#000" fill-opacity="0.070"/><circle cx="42.23" cy="32.63" r="0.36" fill="#000" fill-opacity="0.070"/><circle cx="34.97" cy="23.72" r="0.36" fill="#000" fill-opacity="0.068"/><circle cx="16.60" cy="14.16" r="0.36" fill="#000" fill-opacity="0.083"/><circle cx="29.68" cy="8.26" r="0.68" fill="#000" fill-opacity="0.773"/><circle cx="35.11" cy="49.27" r="0.36" fill="#000" fill-opacity="0.080"/><circle cx="32.15" cy="41.09" r="0.36" fill="#000" fill-opacity="0.069"/><circle cx="35.99" cy="22.02" r="0.36" fill="#000" fill-opacity="0.072"/><circle cx="42.50" cy="34.62" r="0.36" fill="#000" fill-opacity="0.073"/><circle cx="34.93" cy="14.51" r="0.36" fill="#000" fill-opacity="0.080"/><circle cx="54.59" cy="39.37" r="0.36" fill="#000" fill-opacity="0.084"/><circle cx="29.72" cy="8.07" r="0.36" fill="#000" fill-opacity="0.085"/><circle cx="9.71" cy="25.89" r="0.36" fill="#000" fill-opacity="0.084"/><circle cx="18.02" cy="35.73" r="0.36" fill="#000" fill-opacity="0.078"/><circle cx="17.56" cy="33.19" r="0.36" fill="#000" fill-opacity="0.078"/><circle cx="53.87" cy="38.93" r="0.36" fill="#000" fill-opacity="0.085"/><circle cx="18.83" cy="38.17" r="0.36" fill="#000" fill-opacity="0.078"/><circle cx="17.46" cy="30.62" r="0.36" fill="#000" fill-opacity="0.079"/><circle cx="32.59" cy="56.19" r="0.36" fill="#000" fill-opacity="0.086"/><circle cx="12.58" cy="20.91" r="0.36" fill="#000" fill-opacity="0.085"/><circle cx="34.42" cy="20.89" r="0.36" fill="#000" fill-opacity="0.075"/><circle cx="34.91" cy="22.40" r="0.36" fill="#000" fill-opacity="0.073"/><circle cx="19.95" cy="40.47" r="0.36" fill="#000" fill-opacity="0.079"/><circle cx="42.50" cy="36.55" r="0.36" fill="#000" fill-opacity="0.075"/><circle cx="10.20" cy="24.46" r="0.36" fill="#000" fill-opacity="0.085"/><circle cx="34.19" cy="20.75" r="0.62" fill="#000" fill-opacity="0.751"/><circle cx="15.60" cy="15.51" r="0.36" fill="#000" fill-opacity="0.086"/><circle cx="17.71" cy="28.08" r="0.36" fill="#000" fill-opacity="0.080"/><circle cx="10.21" cy="21.76" r="0.36" fill="#000" fill-opacity="0.086"/><circle cx="44.54" cy="51.64" r="0.36" fill="#000" fill-opacity="0.086"/><circle cx="31.68" cy="42.27" r="0.36" fill="#000" fill-opacity="0.074"/><circle cx="55.21" cy="35.59" r="0.36" fill="#000" fill-opacity="0.086"/><circle cx="43.95" cy="51.16" r="0.36" fill="#000" fill-opacity="0.086"/><circle cx="21.38" cy="42.55" r="0.36" fill="#000" fill-opacity="0.081"/><circle cx="48.16" cy="50.01" r="0.36" fill="#000" fill-opacity="0.087"/><circle cx="18.32" cy="25.65" r="0.36" fill="#000" fill-opacity="0.081"/><circle cx="32.78" cy="20.03" r="0.36" fill="#000" fill-opacity="0.078"/><circle cx="42.25" cy="38.36" r="0.36" fill="#000" fill-opacity="0.079"/><circle cx="23.06" cy="44.38" r="0.36" fill="#000" fill-opacity="0.082"/><circle cx="34.15" cy="50.48" r="0.36" fill="#000" fill-opacity="0.085"/><circle cx="19.26" cy="23.36" r="0.36" fill="#000" fill-opacity="0.083"/><circle cx="34.78" cy="21.31" r="0.36" fill="#000" fill-opacity="0.079"/><circle cx="24.02" cy="45.20" r="0.68" fill="#000" fill-opacity="0.772"/><circle cx="33.96" cy="13.37" r="0.36" fill="#000" fill-opacity="0.086"/><circle cx="31.22" cy="43.21" r="0.36" fill="#000" fill-opacity="0.080"/><circle cx="24.97" cy="45.90" r="0.36" fill="#000" fill-opacity="0.085"/><circle cx="31.13" cy="19.47" r="0.36" fill="#000" fill-opacity="0.082"/><circle cx="41.75" cy="40.02" r="0.36" fill="#000" fill-opacity="0.083"/><circle cx="15.80" cy="13.42" r="0.36" fill="#000" fill-opacity="0.090"/><circle cx="20.52" cy="21.30" r="0.36" fill="#000" fill-opacity="0.085"/><circle cx="13.21" cy="18.54" r="0.36" fill="#000" fill-opacity="0.090"/><circle cx="8.61" cy="26.33" r="0.36" fill="#000" fill-opacity="0.090"/><circle cx="55.25" cy="40.42" r="0.36" fill="#000" fill-opacity="0.091"/><circle cx="27.05" cy="47.08" r="0.36" fill="#000" fill-opacity="0.087"/><circle cx="30.08" cy="7.08" r="0.36" fill="#000" fill-opacity="0.091"/><circle cx="46.23" cy="50.38" r="0.36" fill="#000" fill-opacity="0.091"/><circle cx="54.69" cy="39.36" r="0.36" fill="#000" fill-opacity="0.091"/><circle cx="34.58" cy="20.49" r="0.36" fill="#000" fill-opacity="0.085"/><circle cx="22.06" cy="19.49" r="0.36" fill="#000" fill-opacity="0.088"/><circle cx="29.50" cy="19.21" r="0.36" fill="#000" fill-opacity="0.086"/><circle cx="33.06" cy="57.06" r="0.36" fill="#000" fill-opacity="0.092"/><circle cx="16.00" cy="14.04" r="0.36" fill="#000" fill-opacity="0.092"/><circle cx="41.00" cy="41.49" r="0.36" fill="#000" fill-opacity="0.087"/><circle cx="30.78" cy="43.86" r="0.36" fill="#000" fill-opacity="0.086"/><circle cx="9.34" cy="24.33" r="0.36" fill="#000" fill-opacity="0.092"/><circle cx="17.36" cy="36.94" r="0.36" fill="#000" fill-opacity="0.089"/><circle cx="16.75" cy="34.53" r="0.36" fill="#000" fill-opacity="0.089"/><circle cx="46.05" cy="51.55" r="0.36" fill="#000" fill-opacity="0.092"/><circle cx="18.32" cy="39.23" r="0.36" fill="#000" fill-opacity="0.089"/><circle cx="16.51" cy="32.05" r="0.36" fill="#000" fill-opacity="0.089"/><circle cx="9.16" cy="22.13" r="0.36" fill="#000" fill-opacity="0.092"/><circle cx="19.63" cy="41.34" r="0.36" fill="#000" fill-opacity="0.089"/><circle cx="16.66" cy="29.57" r="0.36" fill="#000" fill-opacity="0.089"/><circle cx="29.25" cy="47.89" r="0.36" fill="#000" fill-opacity="0.090"/><circle cx="55.86" cy="36.40" r="0.36" fill="#000" fill-opacity="0.093"/><circle cx="21.24" cy="43.23" r="0.36" fill="#000" fill-opacity="0.090"/><circle cx="33.14" cy="51.23" r="0.36" fill="#000" fill-opacity="0.091"/><circle cx="17.19" cy="27.16" r="0.36" fill="#000" fill-opacity="0.090"/><circle cx="48.58" cy="50.66" r="0.36" fill="#000" fill-opacity="0.093"/><circle cx="23.12" cy="44.83" r="0.36" fill="#000" fill-opacity="0.091"/><circle cx="23.84" cy="17.99" r="0.36" fill="#000" fill-opacity="0.091"/><circle cx="32.94" cy="12.69" r="0.36" fill="#000" fill-opacity="0.092"/><circle cx="18.08" cy="24.86" r="0.36" fill="#000" fill-opacity="0.091"/><circle cx="25.21" cy="46.12" r="0.36" fill="#000" fill-opacity="0.092"/><circle cx="18.69" cy="23.72" r="0.74" fill="#000" fill-opacity="0.793"/><circle cx="27.93" cy="19.27" r="0.36" fill="#000" fill-opacity="0.091"/><circle cx="19.31" cy="22.74" r="0.36" fill="#000" fill-opacity="0.092"/><circle cx="40.04" cy="42.71" r="0.36" fill="#000" fill-opacity="0.091"/><circle cx="34.32" cy="19.96" r="0.36" fill="#000" fill-opacity="0.091"/><circle cx="31.52" cy="48.31" r="0.36" fill="#000" fill-opacity="0.093"/><circle cx="27.47" cy="47.07" r="0.36" fill="#000" fill-opacity="0.093"/><circle cx="39.83" cy="42.92" r="0.75" fill="#000" fill-opacity="0.795"/><circle cx="14.31" cy="16.51" r="0.36" fill="#000" fill-opacity="0.095"/><circle cx="25.46" cy="17.02" r="0.76" fill="#000" fill-opacity="0.798"/><circle cx="20.86" cy="20.85" r="0.36" fill="#000" fill-opacity="0.093"/><circle cx="30.37" cy="44.22" r="0.36" fill="#000" fill-opacity="0.092"/><circle cx="25.83" cy="16.84" r="0.36" fill="#000" fill-opacity="0.094"/><circle cx="29.84" cy="47.64" r="0.36" fill="#000" fill-opacity="0.094"/><circle cx="22.68" cy="19.23" r="0.36" fill="#000" fill-opacity="0.095"/><circle cx="48.16" cy="49.15" r="0.36" fill="#000" fill-opacity="0.096"/><circle cx="31.80" cy="47.82" r="0.77" fill="#000" fill-opacity="0.802"/><circle cx="15.41" cy="13.15" r="0.36" fill="#000" fill-opacity="0.096"/><circle cx="32.27" cy="47.83" r="0.36" fill="#000" fill-opacity="0.095"/><circle cx="33.80" cy="48.32" r="0.36" fill="#000" fill-opacity="0.096"/><circle cx="26.46" cy="19.64" r="0.36" fill="#000" fill-opacity="0.095"/><circle cx="24.73" cy="17.92" r="0.36" fill="#000" fill-opacity="0.096"/><circle cx="38.87" cy="43.68" r="0.36" fill="#000" fill-opacity="0.096"/><circle cx="8.08" cy="26.90" r="0.36" fill="#000" fill-opacity="0.097"/><circle cx="55.33" cy="41.26" r="0.36" fill="#000" fill-opacity="0.097"/><circle cx="34.69" cy="47.62" r="0.36" fill="#000" fill-opacity="0.097"/><circle cx="27.96" cy="16.06" r="0.36" fill="#000" fill-opacity="0.097"/><circle cx="30.49" cy="6.70" r="0.36" fill="#000" fill-opacity="0.098"/><circle cx="32.10" cy="51.51" r="0.36" fill="#000" fill-opacity="0.098"/><circle cx="33.99" cy="19.72" r="0.36" fill="#000" fill-opacity="0.097"/><circle cx="54.96" cy="39.61" r="0.36" fill="#000" fill-opacity="0.098"/><circle cx="26.96" cy="16.96" r="0.36" fill="#000" fill-opacity="0.098"/><circle cx="16.79" cy="13.01" r="0.36" fill="#000" fill-opacity="0.098"/><circle cx="47.21" cy="50.99" r="0.36" fill="#000" fill-opacity="0.098"/><circle cx="37.04" cy="47.04" r="0.36" fill="#000" fill-opacity="0.098"/><circle cx="9.04" cy="24.39" r="0.36" fill="#000" fill-opacity="0.098"/><circle cx="30.01" cy="44.28" r="0.36" fill="#000" fill-opacity="0.099"/><circle cx="31.90" cy="12.49" r="0.36" fill="#000" fill-opacity="0.098"/><circle cx="33.51" cy="57.30" r="0.36" fill="#000" fill-opacity="0.098"/><circle cx="36.04" cy="47.94" r="0.36" fill="#000" fill-opacity="0.099"/><circle cx="29.31" cy="16.38" r="0.36" fill="#000" fill-opacity="0.099"/><circle cx="8.67" cy="22.74" r="0.36" fill="#000" fill-opacity="0.099"/><circle cx="55.92" cy="37.10" r="0.36" fill="#000" fill-opacity="0.099"/><circle cx="25.13" cy="20.32" r="0.36" fill="#000" fill-opacity="0.100"/><circle cx="39.27" cy="46.08" r="0.36" fill="#000" fill-opacity="0.100"/><circle cx="37.54" cy="44.36" r="0.36" fill="#000" fill-opacity="0.101"/><circle cx="30.20" cy="15.68" r="0.36" fill="#000" fill-opacity="0.100"/><circle cx="31.73" cy="16.17" r="0.36" fill="#000" fill-opacity="0.101"/><circle cx="48.59" cy="50.85" r="0.36" fill="#000" fill-opacity="0.100"/><circle cx="15.84" cy="14.85" r="0.36" fill="#000" fill-opacity="0.100"/><circle cx="41.32" cy="44.77" r="0.36" fill="#000" fill-opacity="0.101"/><circle cx="34.16" cy="16.36" r="0.36" fill="#000" fill-opacity="0.102"/><circle cx="38.17" cy="47.16" r="0.36" fill="#000" fill-opacity="0.102"/><circle cx="33.63" cy="19.78" r="0.36" fill="#000" fill-opacity="0.104"/><circle cx="43.14" cy="43.15" r="0.36" fill="#000" fill-opacity="0.103"/><circle cx="49.69" cy="47.49" r="0.36" fill="#000" fill-opacity="0.101"/><circle cx="36.53" cy="16.93" r="0.36" fill="#000" fill-opacity="0.103"/><circle cx="31.28" cy="51.39" r="0.82" fill="#000" fill-opacity="0.822"/><circle cx="32.48" cy="15.69" r="0.36" fill="#000" fill-opacity="0.103"/><circle cx="29.68" cy="44.04" r="0.36" fill="#000" fill-opacity="0.105"/><circle cx="23.96" cy="21.29" r="0.36" fill="#000" fill-opacity="0.105"/><circle cx="44.69" cy="41.26" r="0.36" fill="#000" fill-opacity="0.104"/><circle cx="36.07" cy="44.73" r="0.36" fill="#000" fill-opacity="0.105"/><circle cx="38.79" cy="17.88" r="0.36" fill="#000" fill-opacity="0.104"/><circle cx="45.92" cy="39.14" r="0.36" fill="#000" fill-opacity="0.105"/><circle cx="31.06" cy="51.31" r="0.36" fill="#000" fill-opacity="0.104"/><circle cx="40.16" cy="46.01" r="0.36" fill="#000" fill-opacity="0.105"/><circle cx="40.88" cy="19.17" r="0.36" fill="#000" fill-opacity="0.105"/><circle cx="15.42" cy="13.34" r="0.36" fill="#000" fill-opacity="0.103"/><circle cx="46.81" cy="36.84" r="0.36" fill="#000" fill-opacity="0.106"/><circle cx="30.86" cy="12.77" r="0.36" fill="#000" fill-opacity="0.105"/><circle cx="42.76" cy="20.77" r="0.36" fill="#000" fill-opacity="0.106"/><circle cx="8.14" cy="27.60" r="0.36" fill="#000" fill-opacity="0.103"/><circle cx="34.75" cy="16.11" r="0.36" fill="#000" fill-opacity="0.106"/><circle cx="47.34" cy="34.43" r="0.36" fill="#000" fill-opacity="0.107"/><circle cx="44.37" cy="22.66" r="0.36" fill="#000" fill-opacity="0.107"/><circle cx="54.84" cy="41.87" r="0.36" fill="#000" fill-opacity="0.104"/><circle cx="47.49" cy="31.95" r="0.36" fill="#000" fill-opacity="0.107"/><circle cx="45.51" cy="24.46" r="0.86" fill="#000" fill-opacity="0.834"/><circle cx="45.68" cy="24.77" r="0.36" fill="#000" fill-opacity="0.107"/><circle cx="17.95" cy="12.45" r="0.36" fill="#000" fill-opacity="0.104"/><circle cx="47.25" cy="29.47" r="0.36" fill="#000" fill-opacity="0.107"/><circle cx="46.64" cy="27.06" r="0.36" fill="#000" fill-opacity="0.107"/><circle cx="54.66" cy="39.67" r="0.36" fill="#000" fill-opacity="0.104"/><circle cx="33.22" cy="20.14" r="0.36" fill="#000" fill-opacity="0.110"/><circle cx="23.00" cy="22.51" r="0.36" fill="#000" fill-opacity="0.109"/><circle cx="48.00" cy="49.96" r="0.36" fill="#000" fill-opacity="0.104"/><circle cx="30.94" cy="6.94" r="0.36" fill="#000" fill-opacity="0.104"/><circle cx="34.50" cy="44.79" r="0.36" fill="#000" fill-opacity="0.110"/><circle cx="41.94" cy="44.51" r="0.36" fill="#000" fill-opacity="0.108"/><circle cx="29.42" cy="43.51" r="0.36" fill="#000" fill-opacity="0.111"/><circle cx="9.31" cy="24.64" r="0.36" fill="#000" fill-opacity="0.105"/><circle cx="17.77" cy="13.62" r="0.36" fill="#000" fill-opacity="0.105"/><circle cx="33.92" cy="56.92" r="0.36" fill="#000" fill-opacity="0.105"/><circle cx="36.95" cy="16.92" r="0.36" fill="#000" fill-opacity="0.109"/><circle cx="8.75" cy="23.58" r="0.36" fill="#000" fill-opacity="0.105"/><circle cx="55.39" cy="37.67" r="0.36" fill="#000" fill-opacity="0.106"/><circle cx="29.35" cy="43.28" r="0.91" fill="#000" fill-opacity="0.850"/><circle cx="50.79" cy="45.46" r="0.36" fill="#000" fill-opacity="0.106"/><circle cx="48.17" cy="49.54" r="0.85" fill="#000" fill-opacity="0.832"/><circle cx="48.21" cy="50.59" r="0.85" fill="#000" fill-opacity="0.831"/><circle cx="43.48" cy="42.70" r="0.36" fill="#000" fill-opacity="0.111"/><circle cx="48.20" cy="50.58" r="0.36" fill="#000" fill-opacity="0.106"/><circle cx="22.25" cy="23.98" r="0.36" fill="#000" fill-opacity="0.113"/><circle cx="32.87" cy="44.53" r="0.36" fill="#000" fill-opacity="0.114"/><circle cx="39.03" cy="18.10" r="0.36" fill="#000" fill-opacity="0.111"/><circle cx="32.78" cy="20.79" r="0.36" fill="#000" fill-opacity="0.116"/><circle cx="30.04" cy="50.63" r="0.36" fill="#000" fill-opacity="0.110"/><circle cx="29.22" cy="42.69" r="0.36" fill="#000" fill-opacity="0.117"/><circle cx="44.74" cy="40.64" r="0.36" fill="#000" fill-opacity="0.113"/><circle cx="29.85" cy="13.52" r="0.36" fill="#000" fill-opacity="0.111"/><circle cx="40.94" cy="19.62" r="0.36" fill="#000" fill-opacity="0.114"/><circle cx="21.75" cy="25.64" r="0.36" fill="#000" fill-opacity="0.117"/><circle cx="31.22" cy="43.97" r="0.36" fill="#000" fill-opacity="0.118"/><circle cx="45.68" cy="38.35" r="0.36" fill="#000" fill-opacity="0.115"/><circle cx="15.84" cy="13.99" r="0.36" fill="#000" fill-opacity="0.109"/><circle cx="42.62" cy="21.45" r="0.36" fill="#000" fill-opacity="0.115"/><circle cx="20.05" cy="12.84" r="0.36" fill="#000" fill-opacity="0.110"/><circle cx="8.79" cy="28.41" r="0.36" fill="#000" fill-opacity="0.110"/><circle cx="32.32" cy="21.73" r="0.36" fill="#000" fill-opacity="0.122"/><circle cx="19.46" cy="12.36" r="0.36" fill="#000" fill-opacity="0.110"/><circle cx="53.79" cy="42.24" r="0.36" fill="#000" fill-opacity="0.110"/><circle cx="46.29" cy="35.92" r="0.36" fill="#000" fill-opacity="0.116"/><circle cx="48.40" cy="48.49" r="0.36" fill="#000" fill-opacity="0.110"/><circle cx="53.80" cy="39.54" r="0.36" fill="#000" fill-opacity="0.111"/><circle cx="21.50" cy="27.45" r="0.36" fill="#000" fill-opacity="0.121"/><circle cx="44.05" cy="23.53" r="0.36" fill="#000" fill-opacity="0.117"/><circle cx="29.09" cy="41.60" r="0.36" fill="#000" fill-opacity="0.123"/><circle cx="29.58" cy="43.11" r="0.36" fill="#000" fill-opacity="0.121"/><circle cx="51.42" cy="43.09" r="0.36" fill="#000" fill-opacity="0.111"/><circle cx="46.52" cy="33.78" r="0.94" fill="#000" fill-opacity="0.860"/><circle cx="31.41" cy="7.81" r="0.36" fill="#000" fill-opacity="0.110"/><circle cx="46.54" cy="33.38" r="0.36" fill="#000" fill-opacity="0.117"/><circle cx="32.15" cy="22.12" r="0.98" fill="#000" fill-opacity="0.877"/><circle cx="45.17" cy="25.83" r="0.36" fill="#000" fill-opacity="0.118"/><circle cx="10.13" cy="25.07" r="0.36" fill="#000" fill-opacity="0.111"/><circle cx="46.44" cy="30.81" r="0.36" fill="#000" fill-opacity="0.118"/><circle cx="45.98" cy="28.27" r="0.36" fill="#000" fill-opacity="0.118"/><circle cx="54.29" cy="38.11" r="0.36" fill="#000" fill-opacity="0.112"/><circle cx="34.28" cy="55.93" r="0.36" fill="#000" fill-opacity="0.111"/><circle cx="9.41" cy="24.63" r="0.36" fill="#000" fill-opacity="0.112"/><circle cx="29.07" cy="49.49" r="0.36" fill="#000" fill-opacity="0.116"/><circle cx="51.51" cy="42.43" r="0.90" fill="#000" fill-opacity="0.848"/><circle cx="21.50" cy="29.38" r="0.36" fill="#000" fill-opacity="0.123"/><circle cx="28.01" cy="41.98" r="0.36" fill="#000" fill-opacity="0.124"/><circle cx="31.85" cy="22.91" r="0.36" fill="#000" fill-opacity="0.127"/><circle cx="28.89" cy="14.73" r="0.36" fill="#000" fill-opacity="0.116"/><circle cx="47.40" cy="49.84" r="0.36" fill="#000" fill-opacity="0.113"/><circle cx="29.03" cy="40.28" r="0.36" fill="#000" fill-opacity="0.128"/><circle cx="21.77" cy="31.37" r="0.36" fill="#000" fill-opacity="0.126"/><circle cx="26.53" cy="40.60" r="0.36" fill="#000" fill-opacity="0.126"/><circle cx="21.98" cy="32.33" r="1.00" fill="#000" fill-opacity="0.884"/><circle cx="22.29" cy="33.38" r="0.36" fill="#000" fill-opacity="0.127"/><circle cx="25.19" cy="39.01" r="0.36" fill="#000" fill-opacity="0.127"/><circle cx="22.63" cy="12.54" r="0.36" fill="#000" fill-opacity="0.115"/><circle cx="23.04" cy="35.36" r="0.36" fill="#000" fill-opacity="0.128"/><circle cx="24.02" cy="37.25" r="0.36" fill="#000" fill-opacity="0.128"/><circle cx="31.39" cy="24.32" r="0.36" fill="#000" fill-opacity="0.131"/><circle cx="29.04" cy="38.76" r="0.36" fill="#000" fill-opacity="0.132"/><circle cx="51.58" cy="40.45" r="0.36" fill="#000" fill-opacity="0.116"/><circle cx="21.28" cy="12.76" r="0.36" fill="#000" fill-opacity="0.116"/><circle cx="10.01" cy="29.31" r="0.36" fill="#000" fill-opacity="0.116"/><circle cx="23.75" cy="12.55" r="0.93" fill="#000" fill-opacity="0.859"/><circle cx="16.66" cy="15.08" r="0.36" fill="#000" fill-opacity="0.116"/><circle cx="48.39" cy="46.61" r="0.36" fill="#000" fill-opacity="0.116"/><circle cx="28.17" cy="47.92" r="0.36" fill="#000" fill-opacity="0.121"/><circle cx="52.19" cy="42.36" r="0.36" fill="#000" fill-opacity="0.116"/><circle cx="52.41" cy="39.23" r="0.36" fill="#000" fill-opacity="0.117"/><circle cx="30.94" cy="25.91" r="0.36" fill="#000" fill-opacity="0.134"/><circle cx="28.01" cy="16.36" r="0.36" fill="#000" fill-opacity="0.122"/><circle cx="29.13" cy="37.07" r="0.36" fill="#000" fill-opacity="0.135"/><circle cx="11.49" cy="25.67" r="0.36" fill="#000" fill-opacity="0.117"/><circle cx="31.89" cy="9.26" r="0.36" fill="#000" fill-opacity="0.117"/><circle cx="52.64" cy="38.40" r="0.36" fill="#000" fill-opacity="0.118"/><circle cx="30.52" cy="27.66" r="0.36" fill="#000" fill-opacity="0.137"/><circle cx="10.62" cy="25.86" r="0.36" fill="#000" fill-opacity="0.117"/><circle cx="34.58" cy="54.35" r="0.36" fill="#000" fill-opacity="0.117"/><circle cx="29.29" cy="35.25" r="0.36" fill="#000" fill-opacity="0.137"/><circle cx="25.43" cy="12.71" r="0.36" fill="#000" fill-opacity="0.119"/><circle cx="30.13" cy="29.51" r="0.36" fill="#000" fill-opacity="0.139"/><circle cx="29.51" cy="33.36" r="0.36" fill="#000" fill-opacity="0.139"/><circle cx="29.79" cy="31.43" r="0.36" fill="#000" fill-opacity="0.139"/><circle cx="46.23" cy="48.67" r="0.36" fill="#000" fill-opacity="0.119"/><circle cx="51.25" cy="37.60" r="0.36" fill="#000" fill-opacity="0.120"/><circle cx="27.37" cy="45.97" r="0.36" fill="#000" fill-opacity="0.126"/><circle cx="27.23" cy="18.38" r="0.36" fill="#000" fill-opacity="0.126"/><circle cx="23.36" cy="13.64" r="0.36" fill="#000" fill-opacity="0.121"/><circle cx="47.98" cy="44.37" r="0.36" fill="#000" fill-opacity="0.121"/><circle cx="11.77" cy="30.28" r="0.36" fill="#000" fill-opacity="0.121"/><circle cx="17.85" cy="16.59" r="0.36" fill="#000" fill-opacity="0.121"/><circle cx="28.40" cy="13.35" r="0.36" fill="#000" fill-opacity="0.123"/><circle cx="50.51" cy="38.74" r="0.36" fill="#000" fill-opacity="0.122"/><circle cx="50.11" cy="42.23" r="0.36" fill="#000" fill-opacity="0.122"/><circle cx="13.36" cy="26.43" r="0.36" fill="#000" fill-opacity="0.123"/><circle cx="50.45" cy="34.62" r="0.36" fill="#000" fill-opacity="0.124"/><circle cx="32.38" cy="11.28" r="0.36" fill="#000" fill-opacity="0.122"/><circle cx="50.48" cy="38.53" r="0.36" fill="#000" fill-opacity="0.123"/><circle cx="26.68" cy="43.66" r="0.36" fill="#000" fill-opacity="0.130"/><circle cx="26.64" cy="20.43" r="1.03" fill="#000" fill-opacity="0.893"/><circle cx="12.36" cy="27.25" r="0.36" fill="#000" fill-opacity="0.123"/><circle cx="26.57" cy="20.73" r="0.36" fill="#000" fill-opacity="0.130"/><circle cx="34.83" cy="52.21" r="0.36" fill="#000" fill-opacity="0.123"/><circle cx="44.70" cy="47.09" r="0.36" fill="#000" fill-opacity="0.124"/><circle cx="31.46" cy="14.46" r="0.36" fill="#000" fill-opacity="0.126"/><circle cx="49.20" cy="31.57" r="0.36" fill="#000" fill-opacity="0.127"/><circle cx="25.66" cy="14.97" r="0.36" fill="#000" fill-opacity="0.126"/><circle cx="26.12" cy="41.07" r="0.36" fill="#000" fill-opacity="0.133"/><circle cx="47.18" cy="41.82" r="0.36" fill="#000" fill-opacity="0.126"/><circle cx="26.03" cy="23.36" r="0.36" fill="#000" fill-opacity="0.133"/><circle cx="14.03" cy="31.29" r="0.36" fill="#000" fill-opacity="0.126"/><circle cx="48.16" cy="38.08" r="0.36" fill="#000" fill-opacity="0.127"/><circle cx="19.40" cy="18.48" r="0.36" fill="#000" fill-opacity="0.126"/><circle cx="47.57" cy="41.84" r="0.36" fill="#000" fill-opacity="0.127"/><circle cx="26.51" cy="15.54" r="1.01" fill="#000" fill-opacity="0.887"/><circle cx="34.53" cy="16.00" r="0.36" fill="#000" fill-opacity="0.129"/><circle cx="15.69" cy="27.33" r="0.36" fill="#000" fill-opacity="0.128"/><circle cx="25.71" cy="38.26" r="0.36" fill="#000" fill-opacity="0.135"/><circle cx="47.52" cy="28.53" r="0.36" fill="#000" fill-opacity="0.129"/><circle cx="47.86" cy="38.50" r="0.36" fill="#000" fill-opacity="0.128"/><circle cx="25.65" cy="26.20" r="0.36" fill="#000" fill-opacity="0.136"/><circle cx="32.86" cy="13.81" r="0.36" fill="#000" fill-opacity="0.127"/><circle cx="14.58" cy="28.75" r="0.36" fill="#000" fill-opacity="0.128"/><circle cx="35.00" cy="49.58" r="0.36" fill="#000" fill-opacity="0.128"/><circle cx="25.45" cy="35.29" r="0.36" fill="#000" fill-opacity="0.137"/><circle cx="37.53" cy="17.93" r="0.36" fill="#000" fill-opacity="0.130"/><circle cx="25.42" cy="29.19" r="0.36" fill="#000" fill-opacity="0.137"/><circle cx="45.46" cy="25.57" r="0.36" fill="#000" fill-opacity="0.131"/><circle cx="25.35" cy="32.24" r="0.36" fill="#000" fill-opacity="0.137"/><circle cx="42.86" cy="45.14" r="0.36" fill="#000" fill-opacity="0.129"/><circle cx="28.11" cy="16.71" r="0.36" fill="#000" fill-opacity="0.130"/><circle cx="46.00" cy="39.04" r="0.36" fill="#000" fill-opacity="0.130"/><circle cx="40.40" cy="20.21" r="0.36" fill="#000" fill-opacity="0.131"/><circle cx="43.07" cy="22.78" r="0.36" fill="#000" fill-opacity="0.131"/><circle cx="20.64" cy="19.98" r="1.03" fill="#000" fill-opacity="0.893"/><circle cx="16.74" cy="32.31" r="0.36" fill="#000" fill-opacity="0.131"/><circle cx="45.41" cy="37.28" r="0.36" fill="#000" fill-opacity="0.132"/><circle cx="44.66" cy="41.21" r="0.36" fill="#000" fill-opacity="0.131"/><circle cx="18.42" cy="28.33" r="0.36" fill="#000" fill-opacity="0.132"/><circle cx="21.25" cy="20.70" r="0.36" fill="#000" fill-opacity="0.131"/><circle cx="44.86" cy="38.30" r="0.36" fill="#000" fill-opacity="0.132"/><circle cx="33.32" cy="16.78" r="0.36" fill="#000" fill-opacity="0.132"/><circle cx="17.23" cy="30.32" r="0.36" fill="#000" fill-opacity="0.132"/><circle cx="30.66" cy="18.84" r="0.36" fill="#000" fill-opacity="0.133"/><circle cx="44.47" cy="36.08" r="0.36" fill="#000" fill-opacity="0.133"/><circle cx="35.09" cy="46.52" r="0.36" fill="#000" fill-opacity="0.132"/><circle cx="40.76" cy="42.86" r="0.36" fill="#000" fill-opacity="0.133"/><circle cx="19.81" cy="33.33" r="0.36" fill="#000" fill-opacity="0.134"/><circle cx="42.33" cy="36.34" r="0.36" fill="#000" fill-opacity="0.135"/><circle cx="21.48" cy="29.43" r="0.36" fill="#000" fill-opacity="0.136"/><circle cx="41.43" cy="40.35" r="0.36" fill="#000" fill-opacity="0.134"/><circle cx="41.53" cy="37.96" r="0.36" fill="#000" fill-opacity="0.135"/><circle cx="33.24" cy="21.28" r="0.36" fill="#000" fill-opacity="0.136"/><circle cx="42.64" cy="33.02" r="0.36" fill="#000" fill-opacity="0.136"/><circle cx="23.37" cy="23.20" r="0.36" fill="#000" fill-opacity="0.135"/><circle cx="20.24" cy="31.94" r="0.36" fill="#000" fill-opacity="0.135"/><circle cx="33.74" cy="20.13" r="0.36" fill="#000" fill-opacity="0.135"/><circle cx="35.12" cy="43.10" r="0.36" fill="#000" fill-opacity="0.135"/><circle cx="35.79" cy="23.99" r="0.36" fill="#000" fill-opacity="0.137"/><circle cx="40.55" cy="29.93" r="0.36" fill="#000" fill-opacity="0.137"/><circle cx="23.19" cy="34.31" r="0.36" fill="#000" fill-opacity="0.137"/><circle cx="38.44" cy="40.32" r="0.36" fill="#000" fill-opacity="0.136"/><circle cx="38.99" cy="35.30" r="0.36" fill="#000" fill-opacity="0.138"/><circle cx="38.25" cy="26.90" r="0.36" fill="#000" fill-opacity="0.138"/><circle cx="24.80" cy="30.60" r="0.36" fill="#000" fill-opacity="0.138"/><circle cx="37.98" cy="37.46" r="0.36" fill="#000" fill-opacity="0.138"/><circle cx="37.97" cy="39.29" r="0.36" fill="#000" fill-opacity="0.137"/><circle cx="25.70" cy="25.92" r="0.36" fill="#000" fill-opacity="0.137"/><circle cx="23.55" cy="33.57" r="0.36" fill="#000" fill-opacity="0.137"/><circle cx="26.79" cy="35.24" r="0.36" fill="#000" fill-opacity="0.139"/><circle cx="35.49" cy="34.17" r="0.36" fill="#000" fill-opacity="0.139"/><circle cx="34.27" cy="36.83" r="0.36" fill="#000" fill-opacity="0.139"/><circle cx="34.13" cy="23.77" r="0.36" fill="#000" fill-opacity="0.138"/><circle cx="28.30" cy="31.79" r="0.36" fill="#000" fill-opacity="0.140"/><circle cx="33.71" cy="36.73" r="1.10" fill="#000" fill-opacity="0.918"/><circle cx="35.06" cy="39.41" r="0.36" fill="#000" fill-opacity="0.138"/><circle cx="30.51" cy="36.09" r="0.36" fill="#000" fill-opacity="0.139"/><circle cx="31.33" cy="32.81" r="1.11" fill="#000" fill-opacity="0.920"/><circle cx="31.89" cy="33.00" r="0.36" fill="#000" fill-opacity="0.140"/><circle cx="35.96" cy="37.57" r="0.36" fill="#000" fill-opacity="0.138"/><circle cx="34.36" cy="38.05" r="0.36" fill="#000" fill-opacity="0.139"/><circle cx="27.06" cy="35.15" r="0.36" fill="#000" fill-opacity="0.139"/><circle cx="29.47" cy="36.16" r="1.10" fill="#000" fill-opacity="0.918"/><circle cx="28.19" cy="28.79" r="0.36" fill="#000" fill-opacity="0.139"/><circle cx="30.69" cy="36.66" r="0.36" fill="#000" fill-opacity="0.139"/><circle cx="34.96" cy="36.30" r="1.10" fill="#000" fill-opacity="0.918"/><circle cx="34.46" cy="27.62" r="0.36" fill="#000" fill-opacity="0.139"/><circle cx="34.93" cy="35.53" r="0.36" fill="#000" fill-opacity="0.139"/><circle cx="33.38" cy="34.68" r="0.36" fill="#000" fill-opacity="0.140"/><circle cx="30.77" cy="31.73" r="0.36" fill="#000" fill-opacity="0.140"/><circle cx="34.73" cy="31.57" r="0.36" fill="#000" fill-opacity="0.140"/></svg>