<svg xmlns="http://www.w3.org/2000/svg" width="64" height="64" viewBox="0 0 64 64"><circle cx="41.96" cy="53.82" r="0.49" fill="#000" fill-opacity="0.290"/><circle cx="9.11" cy="25.28" r="0.49" fill="#000" fill-opacity="0.290"/><circle cx="38.70" cy="54.83" r="0.49" fill="#000" fill-opacity="0.291"/><circle cx="10.38" cy="22.13" r="0.49" fill="#000" fill-opacity="0.291"/><circle cx="44.85" cy="52.00" r="0.49" fill="#000" fill-opacity="0.291"/><circle cx="8.64" cy="28.64" r="0.49" fill="#000" fill-opacity="0.291"/><circle cx="12.38" cy="19.39" r="0.49" fill="#000" fill-opacity="0.292"/><circle cx="35.32" cy="55.07" r="0.49" fill="#000" fill-opacity="0.292"/><circle cx="41.67" cy="10.83" r="0.49" fill="#000" fill-opacity="0.292"/><circle cx="44.56" cy="12.46" r="0.49" fill="#000" fill-opacity="0.292"/><circle cx="47.19" cy="49.53" r="0.49" fill="#000" fill-opacity="0.292"/><circle cx="38.53" cy="9.76" r="0.49" fill="#000" fill-opacity="0.292"/><circle cx="8.86" cy="32.00" r="0.49" fill="#000" fill-opacity="0.292"/><circle cx="47.15" cy="14.52" r="0.49" fill="#000" fill-opacity="0.292"/><circle cx="49.43" cy="16.89" r="0.49" fill="#000" fill-opacity="0.293"/><circle cx="51.37" cy="19.55" r="0.49" fill="#000" fill-opacity="0.293"/><circle cx="52.88" cy="22.46" r="0.50" fill="#000" fill-opacity="0.293"/><circle cx="35.25" cy="9.38" r="0.50" fill="#000" fill-opacity="0.293"/><circle cx="53.83" cy="25.59" r="0.50" fill="#000" fill-opacity="0.294"/><circle cx="32.00" cy="54.71" r="0.50" fill="#000" fill-opacity="0.294"/><circle cx="9.57" cy="35.22" r="0.50" fill="#000" fill-opacity="0.294"/><circle cx="14.92" cy="17.20" r="0.50" fill="#000" fill-opacity="0.294"/><circle cx="48.96" cy="46.69" r="0.50" fill="#000" fill-opacity="0.295"/><circle cx="54.16" cy="28.81" r="0.50" fill="#000" fill-opacity="0.295"/><circle cx="32.00" cy="9.67" r="0.50" fill="#000" fill-opacity="0.295"/><circle cx="10.61" cy="38.28" r="0.50" fill="#000" fill-opacity="0.295"/><circle cx="28.84" cy="53.96" r="0.50" fill="#000" fill-opacity="0.295"/><circle cx="11.91" cy="41.18" r="0.50" fill="#000" fill-opacity="0.296"/><circle cx="13.48" cy="43.90" r="0.50" fill="#000" fill-opacity="0.296"/><circle cx="15.39" cy="46.39" r="0.50" fill="#000" fill-opacity="0.296"/><circle cx="17.65" cy="48.56" r="0.50" fill="#000" fill-opacity="0.296"/><circle cx="53.90" cy="32.00" r="0.50" fill="#000" fill-opacity="0.296"/><circle cx="25.84" cy="52.98" r="0.50" fill="#000" fill-opacity="0.296"/><circle cx="17.69" cy="15.49" r="0.50" fill="#000" fill-opacity="0.296"/><circle cx="20.20" cy="50.36" r="0.50" fill="#000" fill-opacity="0.296"/><circle cx="22.96" cy="51.80" r="0.50" fill="#000" fill-opacity="0.296"/><circle cx="28.91" cy="10.49" r="0.50" fill="#000" fill-opacity="0.297"/><circle cx="50.28" cy="43.75" r="0.50" fill="#000" fill-opacity="0.297"/><circle cx="53.23" cy="35.05" r="0.50" fill="#000" fill-opacity="0.297"/><circle cx="20.50" cy="14.10" r="0.50" fill="#000" fill-opacity="0.298"/><circle cx="51.35" cy="40.84" r="0.50" fill="#000" fill-opacity="0.298"/><circle cx="26.01" cy="11.61" r="0.50" fill="#000" fill-opacity="0.298"/><circle cx="52.33" cy="37.97" r="0.50" fill="#000" fill-opacity="0.298"/><circle cx="23.25" cy="12.84" r="0.50" fill="#000" fill-opacity="0.299"/><circle cx="9.90" cy="21.91" r="0.56" fill="#000" fill-opacity="0.343"/><circle cx="8.70" cy="25.16" r="0.56" fill="#000" fill-opacity="0.343"/><circle cx="42.09" cy="54.09" r="0.56" fill="#000" fill-opacity="0.343"/><circle cx="38.82" cy="55.21" r="0.56" fill="#000" fill-opacity="0.343"/><circle cx="44.97" cy="52.18" r="0.56" fill="#000" fill-opacity="0.344"/><circle cx="8.32" cy="28.59" r="0.56" fill="#000" fill-opacity="0.344"/><circle cx="11.89" cy="19.08" r="0.56" fill="#000" fill-opacity="0.344"/><circle cx="35.39" cy="55.56" r="0.56" fill="#000" fill-opacity="0.344"/><circle cx="51.83" cy="19.26" r="0.56" fill="#000" fill-opacity="0.344"/><circle cx="53.42" cy="22.22" r="0.56" fill="#000" fill-opacity="0.345"/><circle cx="49.77" cy="16.60" r="0.56" fill="#000" fill-opacity="0.345"/><circle cx="47.38" cy="14.25" r="0.56" fill="#000" fill-opacity="0.345"/><circle cx="44.70" cy="12.25" r="0.56" fill="#000" fill-opacity="0.345"/><circle cx="41.74" cy="10.66" r="0.56" fill="#000" fill-opacity="0.345"/><circle cx="8.63" cy="32.00" r="0.56" fill="#000" fill-opacity="0.345"/><circle cx="54.41" cy="25.42" r="0.56" fill="#000" fill-opacity="0.345"/><circle cx="47.29" cy="49.65" r="0.56" fill="#000" fill-opacity="0.345"/><circle cx="38.57" cy="9.63" r="0.56" fill="#000" fill-opacity="0.345"/><circle cx="32.00" cy="55.26" r="0.56" fill="#000" fill-opacity="0.345"/><circle cx="14.46" cy="16.80" r="0.56" fill="#000" fill-opacity="0.345"/><circle cx="35.27" cy="9.24" r="0.56" fill="#000" fill-opacity="0.346"/><circle cx="54.72" cy="28.73" r="0.56" fill="#000" fill-opacity="0.346"/><circle cx="9.42" cy="35.25" r="0.56" fill="#000" fill-opacity="0.346"/><circle cx="28.76" cy="54.55" r="0.56" fill="#000" fill-opacity="0.346"/><circle cx="49.05" cy="46.78" r="0.56" fill="#000" fill-opacity="0.347"/><circle cx="32.00" cy="9.49" r="0.56" fill="#000" fill-opacity="0.347"/><circle cx="25.67" cy="53.54" r="0.56" fill="#000" fill-opacity="0.347"/><circle cx="17.32" cy="15.05" r="0.56" fill="#000" fill-opacity="0.347"/><circle cx="10.49" cy="38.32" r="0.56" fill="#000" fill-opacity="0.347"/><circle cx="54.40" cy="32.00" r="0.56" fill="#000" fill-opacity="0.347"/><circle cx="22.73" cy="52.30" r="0.56" fill="#000" fill-opacity="0.347"/><circle cx="19.95" cy="50.75" r="0.56" fill="#000" fill-opacity="0.347"/><circle cx="17.40" cy="48.84" r="0.56" fill="#000" fill-opacity="0.347"/><circle cx="15.18" cy="46.57" r="0.56" fill="#000" fill-opacity="0.347"/><circle cx="11.78" cy="41.23" r="0.56" fill="#000" fill-opacity="0.348"/><circle cx="13.32" cy="44.01" r="0.56" fill="#000" fill-opacity="0.348"/><circle cx="28.87" cy="10.25" r="0.56" fill="#000" fill-opacity="0.348"/><circle cx="50.40" cy="43.82" r="0.56" fill="#000" fill-opacity="0.348"/><circle cx="53.62" cy="35.11" r="0.56" fill="#000" fill-opacity="0.348"/><circle cx="20.22" cy="13.67" r="0.56" fill="#000" fill-opacity="0.349"/><circle cx="25.92" cy="11.30" r="0.56" fill="#000" fill-opacity="0.349"/><circle cx="23.07" cy="12.45" r="0.56" fill="#000" fill-opacity="0.349"/><circle cx="52.61" cy="38.05" r="0.56" fill="#000" fill-opacity="0.349"/><circle cx="51.54" cy="40.92" r="0.56" fill="#000" fill-opacity="0.349"/><circle cx="9.57" cy="21.76" r="0.63" fill="#000" fill-opacity="0.399"/><circle cx="8.44" cy="25.08" r="0.63" fill="#000" fill-opacity="0.399"/><circle cx="38.88" cy="55.43" r="0.63" fill="#000" fill-opacity="0.399"/><circle cx="42.14" cy="54.21" r="0.63" fill="#000" fill-opacity="0.399"/><circle cx="11.52" cy="18.84" r="0.63" fill="#000" fill-opacity="0.399"/><circle cx="35.43" cy="55.88" r="0.63" fill="#000" fill-opacity="0.400"/><circle cx="8.16" cy="28.57" r="0.63" fill="#000" fill-opacity="0.400"/><circle cx="45.00" cy="52.23" r="0.63" fill="#000" fill-opacity="0.400"/><circle cx="53.83" cy="22.03" r="0.63" fill="#000" fill-opacity="0.400"/><circle cx="52.15" cy="19.05" r="0.63" fill="#000" fill-opacity="0.400"/><circle cx="54.88" cy="25.28" r="0.63" fill="#000" fill-opacity="0.400"/><circle cx="49.99" cy="16.41" r="0.63" fill="#000" fill-opacity="0.400"/><circle cx="14.09" cy="16.49" r="0.63" fill="#000" fill-opacity="0.400"/><circle cx="32.00" cy="55.67" r="0.63" fill="#000" fill-opacity="0.400"/><circle cx="47.50" cy="14.11" r="0.63" fill="#000" fill-opacity="0.400"/><circle cx="44.75" cy="12.16" r="0.63" fill="#000" fill-opacity="0.401"/><circle cx="41.76" cy="10.63" r="0.63" fill="#000" fill-opacity="0.401"/><circle cx="8.56" cy="32.00" r="0.63" fill="#000" fill-opacity="0.401"/><circle cx="55.20" cy="28.66" r="0.63" fill="#000" fill-opacity="0.401"/><circle cx="47.30" cy="49.66" r="0.63" fill="#000" fill-opacity="0.401"/><circle cx="38.57" cy="9.61" r="0.63" fill="#000" fill-opacity="0.401"/><circle cx="28.69" cy="55.01" r="0.63" fill="#000" fill-opacity="0.401"/><circle cx="35.28" cy="9.20" r="0.63" fill="#000" fill-opacity="0.401"/><circle cx="25.54" cy="54.01" r="0.63" fill="#000" fill-opacity="0.401"/><circle cx="17.00" cy="14.69" r="0.63" fill="#000" fill-opacity="0.402"/><circle cx="9.40" cy="35.25" r="0.63" fill="#000" fill-opacity="0.402"/><circle cx="54.83" cy="32.00" r="0.63" fill="#000" fill-opacity="0.402"/><circle cx="22.54" cy="52.72" r="0.63" fill="#000" fill-opacity="0.402"/><circle cx="19.73" cy="51.09" r="0.63" fill="#000" fill-opacity="0.402"/><circle cx="17.19" cy="49.09" r="0.63" fill="#000" fill-opacity="0.402"/><circle cx="32.00" cy="9.40" r="0.63" fill="#000" fill-opacity="0.402"/><circle cx="49.07" cy="46.79" r="0.63" fill="#000" fill-opacity="0.402"/><circle cx="15.02" cy="46.72" r="0.63" fill="#000" fill-opacity="0.402"/><circle cx="10.48" cy="38.32" r="0.63" fill="#000" fill-opacity="0.402"/><circle cx="13.22" cy="44.07" r="0.63" fill="#000" fill-opacity="0.402"/><circle cx="11.74" cy="41.25" r="0.63" fill="#000" fill-opacity="0.402"/><circle cx="19.98" cy="13.30" r="0.63" fill="#000" fill-opacity="0.403"/><circle cx="53.97" cy="35.16" r="0.63" fill="#000" fill-opacity="0.403"/><circle cx="28.85" cy="10.07" r="0.63" fill="#000" fill-opacity="0.403"/><circle cx="50.45" cy="43.86" r="0.63" fill="#000" fill-opacity="0.403"/><circle cx="22.92" cy="12.12" r="0.63" fill="#000" fill-opacity="0.403"/><circle cx="25.84" cy="11.03" r="0.63" fill="#000" fill-opacity="0.403"/><circle cx="52.85" cy="38.12" r="0.63" fill="#000" fill-opacity="0.403"/><circle cx="51.67" cy="40.98" r="0.63" fill="#000" fill-opacity="0.403"/><circle cx="9.41" cy="21.68" r="0.70" fill="#000" fill-opacity="0.459"/><circle cx="8.37" cy="25.06" r="0.70" fill="#000" fill-opacity="0.459"/><circle cx="11.29" cy="18.69" r="0.70" fill="#000" fill-opacity="0.459"/><circle cx="38.89" cy="55.48" r="0.70" fill="#000" fill-opacity="0.459"/><circle cx="42.13" cy="54.18" r="0.70" fill="#000" fill-opacity="0.459"/><circle cx="54.11" cy="21.90" r="0.70" fill="#000" fill-opacity="0.459"/><circle cx="35.45" cy="56.02" r="0.70" fill="#000" fill-opacity="0.459"/><circle cx="55.23" cy="25.18" r="0.70" fill="#000" fill-opacity="0.459"/><circle cx="52.33" cy="18.94" r="0.70" fill="#000" fill-opacity="0.459"/><circle cx="8.17" cy="28.57" r="0.70" fill="#000" fill-opacity="0.459"/><circle cx="13.84" cy="16.26" r="0.70" fill="#000" fill-opacity="0.459"/><circle cx="44.95" cy="52.15" r="0.70" fill="#000" fill-opacity="0.459"/><circle cx="32.00" cy="55.92" r="0.70" fill="#000" fill-opacity="0.459"/><circle cx="50.07" cy="16.34" r="0.70" fill="#000" fill-opacity="0.459"/><circle cx="55.57" cy="28.61" r="0.70" fill="#000" fill-opacity="0.459"/><circle cx="47.51" cy="14.10" r="0.70" fill="#000" fill-opacity="0.459"/><circle cx="28.65" cy="55.32" r="0.70" fill="#000" fill-opacity="0.459"/><circle cx="44.71" cy="12.22" r="0.70" fill="#000" fill-opacity="0.459"/><circle cx="41.72" cy="10.72" r="0.70" fill="#000" fill-opacity="0.460"/><circle cx="8.64" cy="32.00" r="0.70" fill="#000" fill-opacity="0.460"/><circle cx="25.43" cy="54.36" r="0.70" fill="#000" fill-opacity="0.460"/><circle cx="16.76" cy="14.41" r="0.70" fill="#000" fill-opacity="0.460"/><circle cx="47.23" cy="49.58" r="0.70" fill="#000" fill-opacity="0.460"/><circle cx="38.55" cy="9.71" r="0.70" fill="#000" fill-opacity="0.460"/><circle cx="55.18" cy="32.00" r="0.70" fill="#000" fill-opacity="0.460"/><circle cx="22.39" cy="53.05" r="0.70" fill="#000" fill-opacity="0.460"/><circle cx="19.55" cy="51.37" r="0.70" fill="#000" fill-opacity="0.460"/><circle cx="35.27" cy="9.26" r="0.70" fill="#000" fill-opacity="0.460"/><circle cx="17.03" cy="49.27" r="0.70" fill="#000" fill-opacity="0.460"/><circle cx="9.51" cy="35.23" r="0.70" fill="#000" fill-opacity="0.460"/><circle cx="14.90" cy="46.81" r="0.70" fill="#000" fill-opacity="0.460"/><circle cx="32.00" cy="9.38" r="0.70" fill="#000" fill-opacity="0.460"/><circle cx="19.79" cy="13.00" r="0.70" fill="#000" fill-opacity="0.460"/><circle cx="49.01" cy="46.74" r="0.70" fill="#000" fill-opacity="0.460"/><circle cx="54.24" cy="35.20" r="0.70" fill="#000" fill-opacity="0.460"/><circle cx="13.18" cy="44.10" r="0.70" fill="#000" fill-opacity="0.460"/><circle cx="10.57" cy="38.29" r="0.70" fill="#000" fill-opacity="0.460"/><circle cx="28.83" cy="9.96" r="0.70" fill="#000" fill-opacity="0.460"/><circle cx="11.78" cy="41.24" r="0.70" fill="#000" fill-opacity="0.460"/><circle cx="22.80" cy="11.84" r="0.70" fill="#000" fill-opacity="0.460"/><circle cx="25.78" cy="10.83" r="0.70" fill="#000" fill-opacity="0.460"/><circle cx="50.44" cy="43.85" r="0.70" fill="#000" fill-opacity="0.460"/><circle cx="53.02" cy="38.17" r="0.70" fill="#000" fill-opacity="0.460"/><circle cx="51.74" cy="41.01" r="0.70" fill="#000" fill-opacity="0.460"/><circle cx="51.75" cy="41.02" r="0.72" fill="#000" fill-opacity="0.484"/><circle cx="50.36" cy="43.80" r="0.72" fill="#000" fill-opacity="0.484"/><circle cx="53.12" cy="38.20" r="0.72" fill="#000" fill-opacity="0.484"/><circle cx="11.89" cy="41.19" r="0.72" fill="#000" fill-opacity="0.484"/><circle cx="10.76" cy="38.24" r="0.72" fill="#000" fill-opacity="0.484"/><circle cx="25.74" cy="10.69" r="0.72" fill="#000" fill-opacity="0.484"/><circle cx="28.82" cy="9.92" r="0.72" fill="#000" fill-opacity="0.484"/><circle cx="48.87" cy="46.62" r="0.72" fill="#000" fill-opacity="0.484"/><circle cx="13.20" cy="44.08" r="0.72" fill="#000" fill-opacity="0.484"/><circle cx="22.71" cy="11.66" r="0.72" fill="#000" fill-opacity="0.484"/><circle cx="9.74" cy="35.20" r="0.72" fill="#000" fill-opacity="0.484"/><circle cx="32.00" cy="9.44" r="0.72" fill="#000" fill-opacity="0.484"/><circle cx="54.42" cy="35.22" r="0.72" fill="#000" fill-opacity="0.484"/><circle cx="14.85" cy="46.86" r="0.72" fill="#000" fill-opacity="0.484"/><circle cx="35.25" cy="9.41" r="0.72" fill="#000" fill-opacity="0.484"/><circle cx="19.66" cy="12.80" r="0.72" fill="#000" fill-opacity="0.484"/><circle cx="38.49" cy="9.91" r="0.72" fill="#000" fill-opacity="0.484"/><circle cx="16.93" cy="49.40" r="0.72" fill="#000" fill-opacity="0.484"/><circle cx="47.08" cy="49.41" r="0.72" fill="#000" fill-opacity="0.484"/><circle cx="8.87" cy="32.00" r="0.72" fill="#000" fill-opacity="0.484"/><circle cx="41.62" cy="10.94" r="0.72" fill="#000" fill-opacity="0.484"/><circle cx="19.43" cy="51.55" r="0.72" fill="#000" fill-opacity="0.485"/><circle cx="44.59" cy="12.40" r="0.72" fill="#000" fill-opacity="0.485"/><circle cx="22.29" cy="53.27" r="0.72" fill="#000" fill-opacity="0.485"/><circle cx="55.41" cy="32.00" r="0.72" fill="#000" fill-opacity="0.485"/><circle cx="16.61" cy="14.24" r="0.72" fill="#000" fill-opacity="0.485"/><circle cx="47.40" cy="14.23" r="0.72" fill="#000" fill-opacity="0.485"/><circle cx="25.37" cy="54.57" r="0.72" fill="#000" fill-opacity="0.485"/><circle cx="44.82" cy="51.95" r="0.72" fill="#000" fill-opacity="0.485"/><circle cx="28.63" cy="55.47" r="0.72" fill="#000" fill-opacity="0.485"/><circle cx="50.02" cy="16.39" r="0.72" fill="#000" fill-opacity="0.485"/><circle cx="8.36" cy="28.60" r="0.72" fill="#000" fill-opacity="0.485"/><circle cx="32.00" cy="55.97" r="0.72" fill="#000" fill-opacity="0.485"/><circle cx="55.81" cy="28.58" r="0.72" fill="#000" fill-opacity="0.485"/><circle cx="42.04" cy="53.99" r="0.72" fill="#000" fill-opacity="0.485"/><circle cx="52.35" cy="18.92" r="0.72" fill="#000" fill-opacity="0.485"/><circle cx="13.70" cy="16.15" r="0.72" fill="#000" fill-opacity="0.485"/><circle cx="35.45" cy="55.98" r="0.72" fill="#000" fill-opacity="0.485"/><circle cx="38.85" cy="55.35" r="0.72" fill="#000" fill-opacity="0.485"/><circle cx="55.42" cy="25.12" r="0.72" fill="#000" fill-opacity="0.485"/><circle cx="54.22" cy="21.85" r="0.72" fill="#000" fill-opacity="0.485"/><circle cx="8.47" cy="25.09" r="0.72" fill="#000" fill-opacity="0.485"/><circle cx="11.21" cy="18.64" r="0.72" fill="#000" fill-opacity="0.485"/><circle cx="9.41" cy="21.69" r="0.72" fill="#000" fill-opacity="0.485"/><circle cx="51.69" cy="40.99" r="0.69" fill="#000" fill-opacity="0.470"/><circle cx="50.23" cy="43.71" r="0.69" fill="#000" fill-opacity="0.470"/><circle cx="11.04" cy="38.16" r="0.69" fill="#000" fill-opacity="0.470"/><circle cx="12.07" cy="41.10" r="0.69" fill="#000" fill-opacity="0.470"/><circle cx="53.15" cy="38.21" r="0.69" fill="#000" fill-opacity="0.471"/><circle cx="48.68" cy="46.45" r="0.69" fill="#000" fill-opacity="0.471"/><circle cx="10.08" cy="35.15" r="0.69" fill="#000" fill-opacity="0.471"/><circle cx="13.28" cy="44.03" r="0.69" fill="#000" fill-opacity="0.471"/><circle cx="25.73" cy="10.64" r="0.69" fill="#000" fill-opacity="0.471"/><circle cx="28.83" cy="9.95" r="0.69" fill="#000" fill-opacity="0.471"/><circle cx="32.00" cy="9.57" r="0.69" fill="#000" fill-opacity="0.471"/><circle cx="22.67" cy="11.56" r="0.69" fill="#000" fill-opacity="0.471"/><circle cx="35.22" cy="9.64" r="0.69" fill="#000" fill-opacity="0.471"/><circle cx="14.85" cy="46.86" r="0.69" fill="#000" fill-opacity="0.472"/><circle cx="46.87" cy="49.16" r="0.69" fill="#000" fill-opacity="0.472"/><circle cx="38.40" cy="10.21" r="0.69" fill="#000" fill-opacity="0.472"/><circle cx="54.51" cy="35.24" r="0.69" fill="#000" fill-opacity="0.472"/><circle cx="9.24" cy="32.00" r="0.69" fill="#000" fill-opacity="0.472"/><circle cx="41.47" cy="11.27" r="0.69" fill="#000" fill-opacity="0.472"/><circle cx="44.40" cy="12.71" r="0.69" fill="#000" fill-opacity="0.472"/><circle cx="19.60" cy="12.71" r="0.69" fill="#000" fill-opacity="0.472"/><circle cx="16.88" cy="49.45" r="0.69" fill="#000" fill-opacity="0.472"/><circle cx="47.19" cy="14.48" r="0.69" fill="#000" fill-opacity="0.472"/><circle cx="44.62" cy="51.64" r="0.69" fill="#000" fill-opacity="0.473"/><circle cx="19.38" cy="51.64" r="0.69" fill="#000" fill-opacity="0.473"/><circle cx="22.24" cy="53.36" r="0.69" fill="#000" fill-opacity="0.473"/><circle cx="55.52" cy="32.00" r="0.69" fill="#000" fill-opacity="0.473"/><circle cx="8.70" cy="28.65" r="0.69" fill="#000" fill-opacity="0.473"/><circle cx="25.36" cy="54.62" r="0.69" fill="#000" fill-opacity="0.473"/><circle cx="16.56" cy="14.18" r="0.69" fill="#000" fill-opacity="0.473"/><circle cx="49.82" cy="16.56" r="0.69" fill="#000" fill-opacity="0.473"/><circle cx="28.63" cy="55.45" r="0.69" fill="#000" fill-opacity="0.473"/><circle cx="41.89" cy="53.66" r="0.69" fill="#000" fill-opacity="0.473"/><circle cx="32.00" cy="55.85" r="0.69" fill="#000" fill-opacity="0.473"/><circle cx="35.42" cy="55.75" r="0.69" fill="#000" fill-opacity="0.474"/><circle cx="38.77" cy="55.05" r="0.69" fill="#000" fill-opacity="0.474"/><circle cx="52.21" cy="19.01" r="0.69" fill="#000" fill-opacity="0.474"/><circle cx="55.89" cy="28.57" r="0.69" fill="#000" fill-opacity="0.474"/><circle cx="13.70" cy="16.15" r="0.69" fill="#000" fill-opacity="0.474"/><circle cx="8.75" cy="25.17" r="0.69" fill="#000" fill-opacity="0.474"/><circle cx="54.16" cy="21.88" r="0.69" fill="#000" fill-opacity="0.474"/><circle cx="55.44" cy="25.12" r="0.69" fill="#000" fill-opacity="0.474"/><circle cx="11.29" cy="18.69" r="0.69" fill="#000" fill-opacity="0.475"/><circle cx="9.60" cy="21.77" r="0.69" fill="#000" fill-opacity="0.475"/><circle cx="50.04" cy="43.59" r="0.65" fill="#000" fill-opacity="0.454"/><circle cx="11.38" cy="38.05" r="0.65" fill="#000" fill-opacity="0.454"/><circle cx="51.57" cy="40.94" r="0.65" fill="#000" fill-opacity="0.454"/><circle cx="12.30" cy="40.99" r="0.65" fill="#000" fill-opacity="0.455"/><circle cx="10.51" cy="35.09" r="0.65" fill="#000" fill-opacity="0.455"/><circle cx="48.43" cy="46.24" r="0.65" fill="#000" fill-opacity="0.455"/><circle cx="53.10" cy="38.20" r="0.65" fill="#000" fill-opacity="0.456"/><circle cx="13.42" cy="43.94" r="0.65" fill="#000" fill-opacity="0.456"/><circle cx="28.84" cy="10.05" r="0.65" fill="#000" fill-opacity="0.456"/><circle cx="25.74" cy="10.68" r="0.65" fill="#000" fill-opacity="0.456"/><circle cx="32.00" cy="9.77" r="0.65" fill="#000" fill-opacity="0.456"/><circle cx="9.72" cy="32.00" r="0.65" fill="#000" fill-opacity="0.456"/><circle cx="46.59" cy="48.84" r="0.65" fill="#000" fill-opacity="0.456"/><circle cx="35.17" cy="9.94" r="0.65" fill="#000" fill-opacity="0.456"/><circle cx="38.29" cy="10.59" r="0.65" fill="#000" fill-opacity="0.456"/><circle cx="41.28" cy="11.69" r="0.65" fill="#000" fill-opacity="0.456"/><circle cx="44.13" cy="13.12" r="0.65" fill="#000" fill-opacity="0.457"/><circle cx="22.67" cy="11.57" r="0.65" fill="#000" fill-opacity="0.457"/><circle cx="14.91" cy="46.81" r="0.65" fill="#000" fill-opacity="0.457"/><circle cx="46.88" cy="14.83" r="0.65" fill="#000" fill-opacity="0.457"/><circle cx="54.49" cy="35.23" r="0.65" fill="#000" fill-opacity="0.457"/><circle cx="44.36" cy="51.23" r="0.65" fill="#000" fill-opacity="0.458"/><circle cx="19.61" cy="12.73" r="0.65" fill="#000" fill-opacity="0.458"/><circle cx="9.19" cy="28.72" r="0.65" fill="#000" fill-opacity="0.458"/><circle cx="16.90" cy="49.42" r="0.65" fill="#000" fill-opacity="0.458"/><circle cx="49.50" cy="16.83" r="0.65" fill="#000" fill-opacity="0.459"/><circle cx="41.69" cy="53.21" r="0.65" fill="#000" fill-opacity="0.459"/><circle cx="19.39" cy="51.63" r="0.65" fill="#000" fill-opacity="0.459"/><circle cx="22.26" cy="53.32" r="0.65" fill="#000" fill-opacity="0.459"/><circle cx="25.39" cy="54.51" r="0.65" fill="#000" fill-opacity="0.459"/><circle cx="28.66" cy="55.24" r="0.65" fill="#000" fill-opacity="0.459"/><circle cx="16.62" cy="14.25" r="0.65" fill="#000" fill-opacity="0.459"/><circle cx="55.49" cy="32.00" r="0.65" fill="#000" fill-opacity="0.459"/><circle cx="32.00" cy="55.54" r="0.65" fill="#000" fill-opacity="0.460"/><circle cx="38.64" cy="54.60" r="0.65" fill="#000" fill-opacity="0.460"/><circle cx="35.36" cy="55.36" r="0.65" fill="#000" fill-opacity="0.460"/><circle cx="51.93" cy="19.19" r="0.65" fill="#000" fill-opacity="0.460"/><circle cx="9.18" cy="25.30" r="0.65" fill="#000" fill-opacity="0.460"/><circle cx="13.84" cy="16.26" r="0.65" fill="#000" fill-opacity="0.461"/><circle cx="55.82" cy="28.58" r="0.65" fill="#000" fill-opacity="0.461"/><circle cx="53.94" cy="21.98" r="0.65" fill="#000" fill-opacity="0.461"/><circle cx="9.94" cy="21.92" r="0.65" fill="#000" fill-opacity="0.461"/><circle cx="55.30" cy="25.16" r="0.65" fill="#000" fill-opacity="0.462"/><circle cx="11.53" cy="18.84" r="0.65" fill="#000" fill-opacity="0.462"/><circle cx="11.78" cy="37.94" r="0.61" fill="#000" fill-opacity="0.436"/><circle cx="49.80" cy="43.44" r="0.61" fill="#000" fill-opacity="0.436"/><circle cx="11.01" cy="35.02" r="0.61" fill="#000" fill-opacity="0.436"/><circle cx="51.40" cy="40.86" r="0.61" fill="#000" fill-opacity="0.437"/><circle cx="12.59" cy="40.86" r="0.61" fill="#000" fill-opacity="0.437"/><circle cx="48.14" cy="45.99" r="0.61" fill="#000" fill-opacity="0.437"/><circle cx="10.29" cy="32.00" r="0.61" fill="#000" fill-opacity="0.438"/><circle cx="46.27" cy="48.47" r="0.61" fill="#000" fill-opacity="0.439"/><circle cx="41.06" cy="12.17" r="0.61" fill="#000" fill-opacity="0.439"/><circle cx="52.96" cy="38.16" r="0.61" fill="#000" fill-opacity="0.439"/><circle cx="38.16" cy="11.03" r="0.61" fill="#000" fill-opacity="0.439"/><circle cx="13.61" cy="43.82" r="0.61" fill="#000" fill-opacity="0.439"/><circle cx="43.82" cy="13.61" r="0.61" fill="#000" fill-opacity="0.439"/><circle cx="35.12" cy="10.29" r="0.61" fill="#000" fill-opacity="0.439"/><circle cx="32.00" cy="10.03" r="0.61" fill="#000" fill-opacity="0.439"/><circle cx="28.87" cy="10.23" r="0.61" fill="#000" fill-opacity="0.439"/><circle cx="25.78" cy="10.81" r="0.61" fill="#000" fill-opacity="0.440"/><circle cx="46.49" cy="15.28" r="0.61" fill="#000" fill-opacity="0.440"/><circle cx="44.06" cy="50.76" r="0.61" fill="#000" fill-opacity="0.440"/><circle cx="22.72" cy="11.69" r="0.61" fill="#000" fill-opacity="0.440"/><circle cx="15.04" cy="46.70" r="0.61" fill="#000" fill-opacity="0.441"/><circle cx="9.78" cy="28.81" r="0.61" fill="#000" fill-opacity="0.441"/><circle cx="54.36" cy="35.22" r="0.61" fill="#000" fill-opacity="0.441"/><circle cx="49.08" cy="17.20" r="0.61" fill="#000" fill-opacity="0.441"/><circle cx="41.44" cy="52.66" r="0.61" fill="#000" fill-opacity="0.442"/><circle cx="19.70" cy="12.87" r="0.61" fill="#000" fill-opacity="0.442"/><circle cx="16.99" cy="49.32" r="0.61" fill="#000" fill-opacity="0.443"/><circle cx="38.47" cy="54.03" r="0.61" fill="#000" fill-opacity="0.443"/><circle cx="35.28" cy="54.81" r="0.61" fill="#000" fill-opacity="0.443"/><circle cx="32.00" cy="55.08" r="0.61" fill="#000" fill-opacity="0.443"/><circle cx="28.71" cy="54.88" r="0.61" fill="#000" fill-opacity="0.443"/><circle cx="19.47" cy="51.50" r="0.61" fill="#000" fill-opacity="0.444"/><circle cx="51.51" cy="19.46" r="0.61" fill="#000" fill-opacity="0.444"/><circle cx="25.47" cy="54.25" r="0.61" fill="#000" fill-opacity="0.444"/><circle cx="9.75" cy="25.47" r="0.61" fill="#000" fill-opacity="0.444"/><circle cx="22.34" cy="53.14" r="0.61" fill="#000" fill-opacity="0.444"/><circle cx="16.78" cy="14.43" r="0.61" fill="#000" fill-opacity="0.444"/><circle cx="55.33" cy="32.00" r="0.61" fill="#000" fill-opacity="0.444"/><circle cx="14.10" cy="16.49" r="0.61" fill="#000" fill-opacity="0.445"/><circle cx="53.57" cy="22.15" r="0.61" fill="#000" fill-opacity="0.445"/><circle cx="10.43" cy="22.15" r="0.61" fill="#000" fill-opacity="0.445"/><circle cx="55.60" cy="28.61" r="0.61" fill="#000" fill-opacity="0.446"/><circle cx="11.91" cy="19.09" r="0.61" fill="#000" fill-opacity="0.446"/><circle cx="54.99" cy="25.25" r="0.61" fill="#000" fill-opacity="0.446"/></svg>